<svg width="46" height="46" viewBox="0 0 46 46" fill="none" xmlns="http://www.w3.org/2000/svg">
<g clip-path="url(#clip0_115_93)">
<path d="M23.0676 0C10.3652 0 0.067627 10.2976 0.067627 23C0.067627 35.702 10.3652 46 23.0676 46C35.7701 46 46.0676 35.702 46.0676 23C46.0676 10.2971 35.7705 0 23.0676 0Z" fill="#2770FF"/>
<path d="M42.8449 11.2594C40.9372 8.0523 38.2734 5.34842 35.0962 3.39526C28.6874 9.80398 17.7105 20.781 17.5007 20.9903C16.8765 21.6145 14.8782 30.786 15.3097 31.2174C15.7518 31.66 24.7006 29.4037 25.3069 28.7965L42.8449 11.2594Z" fill="white"/>
<path d="M21.3997 24.8892C20.9415 24.431 20.8826 22.4204 20.4208 21.959C19.9594 21.4967 17.5026 20.9907 17.5007 20.9902C16.9013 21.5896 15.037 30.0633 15.2706 31.1204L15.4063 31.2565C16.4561 31.481 24.7246 29.3793 25.3069 28.7964C25.3069 28.7964 24.7798 26.3175 24.3285 25.8667C23.8772 25.415 21.8588 25.3478 21.3997 24.8892Z" fill="#FFCABA"/>
<path d="M15.2585 31.0528L15.2705 31.12L15.4067 31.2566C16.4582 31.4806 24.7244 29.3793 25.3068 28.7965C25.3068 28.7965 24.7999 26.3383 24.3385 25.876C16.6477 30.251 15.4467 30.9433 15.2585 31.0528Z" fill="#E5B5A7"/>
<path d="M15.2554 31.0201C15.3957 30.7795 16.1666 29.4386 20.4207 21.9595C19.9589 21.4972 17.5002 20.9907 17.5002 20.9907C16.9174 21.5731 15.1372 29.607 15.2554 31.0201Z" fill="#FFDCD2"/>
<path d="M16.8503 29.4478C16.5343 29.1313 15.992 28.8949 15.4883 28.8567C15.2739 30.1318 15.1778 31.0858 15.3098 31.2179C15.4381 31.3467 16.2891 31.2464 17.4428 31.0251C17.4709 30.4671 17.2124 29.8098 16.8503 29.4478Z" fill="white"/>
<path d="M17.5007 20.9902C17.5007 20.9902 19.9594 21.4971 20.4213 21.959C20.4144 21.97 37.3875 5.00705 37.3875 5.00705C36.6574 4.42561 35.8943 3.88511 35.0967 3.39429L17.5007 20.9902Z" fill="white"/>
<path d="M41.2625 8.93823C41.2625 8.93823 24.3276 25.8823 24.3386 25.8764C24.8005 26.3387 25.3069 28.7969 25.3069 28.7969L42.8444 11.2594C42.3646 10.4516 41.8347 9.67791 41.2625 8.93823Z" fill="white"/>
</g>
<defs>
<clipPath id="clip0_115_93">
<rect width="46" height="46" fill="white"/>
</clipPath>
</defs>
</svg>
